HIERARCHY
ROOT mixamorig:Hips
{
	OFFSET -0.000008 104.274872 1.554316
	CHANNELS 6 Xposition Yposition Zposition Xrotation Yrotation Zrotation
	JOINT mixamorig:Spine
	{
		OFFSET -0.000005 10.181595 0.131519
		CHANNELS 6 Xposition Yposition Zposition Xrotation Yrotation Zrotation
		JOINT mixamorig:Spine1
		{
			OFFSET -0.000000 9.893959 -1.470707
			CHANNELS 6 Xposition Yposition Zposition Xrotation Yrotation Zrotation
			JOINT mixamorig:Spine2
			{
				OFFSET -0.000000 9.220757 -1.370641
				CHANNELS 6 Xposition Yposition Zposition Xrotation Yrotation Zrotation
				JOINT mixamorig:Neck
				{
					OFFSET 0.000001 16.740417 -2.049036
					CHANNELS 6 Xposition Yposition Zposition Xrotation Yrotation Zrotation
					JOINT mixamorig:Head
					{
						OFFSET 0.000000 9.617874 1.685006
						CHANNELS 6 Xposition Yposition Zposition Xrotation Yrotation Zrotation
						JOINT mixamorig:HeadTop_End
						{
							OFFSET 0.000002 22.037354 7.501101
							CHANNELS 6 Xposition Yposition Zposition Xrotation Yrotation Zrotation
							End Site
							{
								OFFSET 0.000168 2310.654297 -282.823242
							}
						}
					}
				}
				JOINT mixamorig:RightShoulder
				{
					OFFSET -4.569970 11.014908 -2.160885
					CHANNELS 6 Xposition Yposition Zposition Xrotation Yrotation Zrotation
					JOINT mixamorig:RightArm
					{
						OFFSET -10.592851 -0.524811 -2.232101
						CHANNELS 6 Xposition Yposition Zposition Xrotation Yrotation Zrotation
						JOINT mixamorig:RightForeArm
						{
							OFFSET -27.841511 0.000031 -0.000004
							CHANNELS 6 Xposition Yposition Zposition Xrotation Yrotation Zrotation
							JOINT mixamorig:RightHand
							{
								OFFSET -28.328831 -0.000015 0.000015
								CHANNELS 6 Xposition Yposition Zposition Xrotation Yrotation Zrotation
								JOINT mixamorig:RightHandThumb1
								{
									OFFSET -2.464806 -1.573990 2.681852
									CHANNELS 6 Xposition Yposition Zposition Xrotation Yrotation Zrotation
									JOINT mixamorig:RightHandThumb2
									{
										OFFSET -3.215179 -1.872803 1.924282
										CHANNELS 6 Xposition Yposition Zposition Xrotation Yrotation Zrotation
										JOINT mixamorig:RightHandThumb3
										{
											OFFSET -2.654831 -1.527969 1.512609
											CHANNELS 6 Xposition Yposition Zposition Xrotation Yrotation Zrotation
											JOINT mixamorig:RightHandThumb4
											{
												OFFSET -2.018814 -1.152008 1.108052
												CHANNELS 6 Xposition Yposition Zposition Xrotation Yrotation Zrotation
												End Site
												{
													OFFSET -188.809540 -114.533607 132.431396
												}
											}
										}
									}
								}
								JOINT mixamorig:RightHandIndex1
								{
									OFFSET -9.108284 -0.517868 2.259835
									CHANNELS 6 Xposition Yposition Zposition Xrotation Yrotation Zrotation
									JOINT mixamorig:RightHandIndex2
									{
										OFFSET -3.699989 0.000000 0.001215
										CHANNELS 6 Xposition Yposition Zposition Xrotation Yrotation Zrotation
										JOINT mixamorig:RightHandIndex3
										{
											OFFSET -2.850006 0.000031 -0.000522
											CHANNELS 6 Xposition Yposition Zposition Xrotation Yrotation Zrotation
											JOINT mixamorig:RightHandIndex4
											{
												OFFSET -2.772186 -0.000015 -0.000020
												CHANNELS 6 Xposition Yposition Zposition Xrotation Yrotation Zrotation
												End Site
												{
													OFFSET -277.218445 0.000000 -0.050231
												}
											}
										}
									}
								}
								JOINT mixamorig:RightHandMiddle1
								{
									OFFSET -9.532516 -0.000031 -0.000023
									CHANNELS 6 Xposition Yposition Zposition Xrotation Yrotation Zrotation
									JOINT mixamorig:RightHandMiddle2
									{
										OFFSET -3.700005 -0.000015 0.003713
										CHANNELS 6 Xposition Yposition Zposition Xrotation Yrotation Zrotation
										JOINT mixamorig:RightHandMiddle3
										{
											OFFSET -2.949974 0.000015 -0.002054
											CHANNELS 6 Xposition Yposition Zposition Xrotation Yrotation Zrotation
											JOINT mixamorig:RightHandMiddle4
											{
												OFFSET -2.946640 0.000000 -0.000156
												CHANNELS 6 Xposition Yposition Zposition Xrotation Yrotation Zrotation
												End Site
												{
													OFFSET -294.664337 0.000000 -0.113670
												}
											}
										}
									}
								}
								JOINT mixamorig:RightHandRing1
								{
									OFFSET -9.103600 -0.043076 -1.865134
									CHANNELS 6 Xposition Yposition Zposition Xrotation Yrotation Zrotation
									JOINT mixamorig:RightHandRing2
									{
										OFFSET -3.379288 0.000000 -0.001055
										CHANNELS 6 Xposition Yposition Zposition Xrotation Yrotation Zrotation
										JOINT mixamorig:RightHandRing3
										{
											OFFSET -2.889687 -0.000015 0.000379
											CHANNELS 6 Xposition Yposition Zposition Xrotation Yrotation Zrotation
											JOINT mixamorig:RightHandRing4
											{
												OFFSET -2.638809 -0.000015 0.000941
												CHANNELS 6 Xposition Yposition Zposition Xrotation Yrotation Zrotation
												End Site
												{
													OFFSET -263.880371 0.000000 0.516020
												}
											}
										}
									}
								}
								JOINT mixamorig:RightHandPinky1
								{
									OFFSET -8.076683 -0.486710 -3.806280
									CHANNELS 6 Xposition Yposition Zposition Xrotation Yrotation Zrotation
									JOINT mixamorig:RightHandPinky2
									{
										OFFSET -3.600014 -0.000015 -0.003747
										CHANNELS 6 Xposition Yposition Zposition Xrotation Yrotation Zrotation
										JOINT mixamorig:RightHandPinky3
										{
											OFFSET -2.099983 0.000000 -0.005739
											CHANNELS 6 Xposition Yposition Zposition Xrotation Yrotation Zrotation
											JOINT mixamorig:RightHandPinky4
											{
												OFFSET -2.115768 -0.000031 -0.003680
												CHANNELS 6 Xposition Yposition Zposition Xrotation Yrotation Zrotation
												End Site
												{
													OFFSET -211.577087 0.000000 -0.350686
												}
											}
										}
									}
								}
							}
						}
					}
				}
				JOINT mixamorig:LeftShoulder
				{
					OFFSET 4.570447 11.014725 -2.160855
					CHANNELS 6 Xposition Yposition Zposition Xrotation Yrotation Zrotation
					JOINT mixamorig:LeftArm
					{
						OFFSET 10.592371 -0.524597 -2.232119
						CHANNELS 6 Xposition Yposition Zposition Xrotation Yrotation Zrotation
						JOINT mixamorig:LeftForeArm
						{
							OFFSET 27.841532 -0.000031 0.000026
							CHANNELS 6 Xposition Yposition Zposition Xrotation Yrotation Zrotation
							JOINT mixamorig:LeftHand
							{
								OFFSET 28.328846 -0.000061 0.000022
								CHANNELS 6 Xposition Yposition Zposition Xrotation Yrotation Zrotation
								JOINT mixamorig:LeftHandThumb1
								{
									OFFSET 2.466141 -1.576172 2.681732
									CHANNELS 6 Xposition Yposition Zposition Xrotation Yrotation Zrotation
									JOINT mixamorig:LeftHandThumb2
									{
										OFFSET 3.217812 -1.872070 1.916482
										CHANNELS 6 Xposition Yposition Zposition Xrotation Yrotation Zrotation
										JOINT mixamorig:LeftHandThumb3
										{
											OFFSET 2.656029 -1.528778 1.514513
											CHANNELS 6 Xposition Yposition Zposition Xrotation Yrotation Zrotation
											JOINT mixamorig:LeftHandThumb4
											{
												OFFSET 2.020889 -1.154053 1.115139
												CHANNELS 6 Xposition Yposition Zposition Xrotation Yrotation Zrotation
												End Site
												{
													OFFSET 190.885437 -115.081749 130.048782
												}
											}
										}
									}
								}
								JOINT mixamorig:LeftHandIndex1
								{
									OFFSET 9.109314 -0.518021 2.259871
									CHANNELS 6 Xposition Yposition Zposition Xrotation Yrotation Zrotation
									JOINT mixamorig:LeftHandIndex2
									{
										OFFSET 3.699989 0.000000 -0.000322
										CHANNELS 6 Xposition Yposition Zposition Xrotation Yrotation Zrotation
										JOINT mixamorig:LeftHandIndex3
										{
											OFFSET 2.850006 0.000000 0.000352
											CHANNELS 6 Xposition Yposition Zposition Xrotation Yrotation Zrotation
											JOINT mixamorig:LeftHandIndex4
											{
												OFFSET 2.774864 -0.000031 -0.000027
												CHANNELS 6 Xposition Yposition Zposition Xrotation Yrotation Zrotation
												End Site
												{
													OFFSET 277.486267 0.000000 -0.009857
												}
											}
										}
									}
								}
								JOINT mixamorig:LeftHandMiddle1
								{
									OFFSET 9.533394 0.000061 0.000044
									CHANNELS 6 Xposition Yposition Zposition Xrotation Yrotation Zrotation
									JOINT mixamorig:LeftHandMiddle2
									{
										OFFSET 3.699989 -0.000015 -0.000231
										CHANNELS 6 Xposition Yposition Zposition Xrotation Yrotation Zrotation
										JOINT mixamorig:LeftHandMiddle3
										{
											OFFSET 2.949997 -0.000015 -0.000059
											CHANNELS 6 Xposition Yposition Zposition Xrotation Yrotation Zrotation
											JOINT mixamorig:LeftHandMiddle4
											{
												OFFSET 2.952896 0.000031 0.000063
												CHANNELS 6 Xposition Yposition Zposition Xrotation Yrotation Zrotation
												End Site
												{
													OFFSET 295.289337 0.000000 0.022810
												}
											}
										}
									}
								}
								JOINT mixamorig:LeftHandRing1
								{
									OFFSET 9.104523 -0.042999 -1.865074
									CHANNELS 6 Xposition Yposition Zposition Xrotation Yrotation Zrotation
									JOINT mixamorig:LeftHandRing2
									{
										OFFSET 3.150009 -0.000031 0.000043
										CHANNELS 6 Xposition Yposition Zposition Xrotation Yrotation Zrotation
										JOINT mixamorig:LeftHandRing3
										{
											OFFSET 2.949982 -0.000015 0.000040
											CHANNELS 6 Xposition Yposition Zposition Xrotation Yrotation Zrotation
											JOINT mixamorig:LeftHandRing4
											{
												OFFSET 2.644348 0.000000 0.000057
												CHANNELS 6 Xposition Yposition Zposition Xrotation Yrotation Zrotation
												End Site
												{
													OFFSET 264.434631 0.000000 0.012105
												}
											}
										}
									}
								}
								JOINT mixamorig:LeftHandPinky1
								{
									OFFSET 8.077789 -0.486847 -3.806259
									CHANNELS 6 Xposition Yposition Zposition Xrotation Yrotation Zrotation
									JOINT mixamorig:LeftHandPinky2
									{
										OFFSET 3.599953 0.000031 0.014727
										CHANNELS 6 Xposition Yposition Zposition Xrotation Yrotation Zrotation
										JOINT mixamorig:LeftHandPinky3
										{
											OFFSET 2.100021 0.000015 0.007705
											CHANNELS 6 Xposition Yposition Zposition Xrotation Yrotation Zrotation
											JOINT mixamorig:LeftHandPinky4
											{
												OFFSET 2.125504 0.000031 0.007517
												CHANNELS 6 Xposition Yposition Zposition Xrotation Yrotation Zrotation
												End Site
												{
													OFFSET 212.550781 0.000000 0.625752
												}
											}
										}
									}
								}
							}
						}
					}
				}
			}
		}
	}
	JOINT mixamorig:RightUpLeg
	{
		OFFSET -8.207787 -6.751648 -1.599560
		CHANNELS 6 Xposition Yposition Zposition Xrotation Yrotation Zrotation
		JOINT mixamorig:RightLeg
		{
			OFFSET -0.000002 -44.370117 0.345942
			CHANNELS 6 Xposition Yposition Zposition Xrotation Yrotation Zrotation
			JOINT mixamorig:RightFoot
			{
				OFFSET 0.000003 -44.423679 -3.043532
				CHANNELS 6 Xposition Yposition Zposition Xrotation Yrotation Zrotation
				JOINT mixamorig:RightToeBase
				{
					OFFSET -0.000002 -8.728671 10.710558
					CHANNELS 6 Xposition Yposition Zposition Xrotation Yrotation Zrotation
					JOINT mixamorig:RightToe_End
					{
						OFFSET -0.000001 -0.000679 9.278119
						CHANNELS 6 Xposition Yposition Zposition Xrotation Yrotation Zrotation
						End Site
						{
							OFFSET 0.000000 -0.067690 927.812134
						}
					}
				}
			}
		}
	}
	JOINT mixamorig:LeftUpLeg
	{
		OFFSET 8.207793 -6.751686 -1.599556
		CHANNELS 6 Xposition Yposition Zposition Xrotation Yrotation Zrotation
		JOINT mixamorig:LeftLeg
		{
			OFFSET -0.000004 -44.370014 0.346954
			CHANNELS 6 Xposition Yposition Zposition Xrotation Yrotation Zrotation
			JOINT mixamorig:LeftFoot
			{
				OFFSET -0.000001 -44.423672 -3.044401
				CHANNELS 6 Xposition Yposition Zposition Xrotation Yrotation Zrotation
				JOINT mixamorig:LeftToeBase
				{
					OFFSET -0.000002 -8.728669 10.710558
					CHANNELS 6 Xposition Yposition Zposition Xrotation Yrotation Zrotation
					JOINT mixamorig:LeftToe_End
					{
						OFFSET -0.000003 -0.000679 9.278133
						CHANNELS 6 Xposition Yposition Zposition Xrotation Yrotation Zrotation
						End Site
						{
							OFFSET 0.000000 -0.068021 927.813477
						}
					}
				}
			}
		}
	}
}
MOTION
Frames: 3
Frame Time: 0.033333
0.000006 104.270477 1.554256 0.000010 0.000003 -0.000113 -0.000005 10.181587 0.131522 0.000001 -0.000003 0.000084 -0.000000 9.893967 -1.470711 0.000001 0.000000 -0.000000 -0.000000 9.220802 -1.370642 0.000000 -0.000000 -0.000000 0.000001 16.740433 -2.049030 0.000000 -0.000000 -0.000000 0.000000 9.617859 1.685014 0.000000 0.000000 0.000000 0.000002 22.037384 7.501101 0.000000 -0.000000 0.000000 -4.569968 11.014880 -2.160881 0.000008 0.000001 -0.000038 -10.592876 -0.524759 -2.231910 74.579819 28.209018 -21.664525 -27.841522 0.000019 0.000533 -54.345793 107.747928 70.236044 -28.328821 0.000006 0.000029 -0.000318 -0.000043 0.000007 -2.464466 -1.574039 2.682376 -10.111293 -146.296396 55.545397 -3.215216 -1.872477 1.924604 145.522972 35.001885 48.308234 -2.654968 -1.527856 1.513062 151.517365 27.471830 -26.003980 -2.018827 -1.152001 1.108060 -0.000002 -0.000003 0.000002 -9.108380 -0.517584 2.260203 115.665511 16.680468 -26.316085 -3.700053 0.000315 0.001558 110.246514 10.779880 -15.385259 -2.850061 0.000379 -0.000215 110.074161 7.220693 -10.310936 -2.772178 -0.000018 -0.000018 -0.000002 0.000001 -0.000000 -9.532595 0.000242 0.000346 115.169748 16.874949 -26.521777 -3.700062 0.000303 0.004076 114.504201 10.529791 -16.161974 -2.950038 0.000339 -0.001692 116.060473 9.251321 -14.761395 -2.946622 0.000001 -0.000154 0.000001 0.000001 0.000002 -9.103682 -0.042785 -1.864768 114.133048 19.389358 -29.479797 -3.379319 0.000273 -0.000688 117.091722 12.970131 -21.083795 -2.889783 0.000310 0.000767 121.203688 9.608914 -17.053777 -2.638825 -0.000002 0.000938 0.000004 -0.000000 0.000000 -8.076771 -0.486416 -3.805986 91.995961 23.813236 -24.468360 -3.600067 0.000256 -0.003441 99.229562 16.869601 -19.321973 -2.100059 0.000289 -0.005378 105.541374 11.591757 -14.906440 -2.115786 -0.000056 -0.003677 0.000000 0.000000 -0.000002 4.570446 11.014691 -2.160851 -0.000018 0.000010 -0.000021 10.592398 -0.524478 -2.232339 73.614748 -11.640723 8.724009 27.841827 0.000055 -0.000199 98.613322 -71.961794 80.348283 28.328815 -0.000029 0.000017 0.000022 -0.000089 0.000000 2.466114 -1.576168 2.681880 -17.299416 150.788365 -47.474948 3.217753 -1.871702 1.916378 157.240394 -33.088459 -10.056941 2.656086 -1.528614 1.514461 143.246115 -27.273154 41.150063 2.020898 -1.154083 1.115151 -0.000000 0.000003 0.000006 9.109389 -0.517828 2.259728 94.524272 -16.016097 17.300912 3.700037 0.000192 -0.000466 91.962801 -12.829071 13.289789 2.850060 0.000210 0.000212 90.375950 -11.835142 11.911193 2.774887 -0.000028 -0.000025 0.000004 -0.000000 -0.000000 9.533474 0.000242 -0.000075 97.172261 -15.636152 17.685930 3.700047 0.000190 -0.000359 95.006770 -13.515294 14.735127 2.950070 0.000181 -0.000183 95.899695 -16.349424 18.101325 2.952880 -0.000031 0.000072 0.000001 -0.000001 0.000000 9.104597 -0.042828 -1.865224 93.314161 -15.426474 16.335615 3.150060 0.000215 -0.000089 98.687163 -14.981354 17.411308 2.950027 0.000177 -0.000055 103.017530 -15.379537 19.276226 2.644327 0.000014 0.000056 0.000000 -0.000001 -0.000001 8.077850 -0.486746 -3.806403 73.393832 -20.195840 15.583299 3.599998 0.000148 0.014578 73.118712 -15.691187 12.062352 2.100025 0.000173 0.007555 80.258534 -13.742406 12.016885 2.125509 -0.000029 0.007514 0.000001 -0.000001 0.000001 -8.207786 -6.751667 -1.599560 -0.077001 -0.000003 0.000080 -0.000002 -44.370110 0.345938 0.153719 -0.000000 -0.000000 0.000000 -44.423679 -3.043532 -0.076700 0.000000 -0.000002 -0.000006 -8.728667 10.710559 -0.000009 -0.000000 -0.000000 -0.000001 -0.000679 9.278123 0.000000 -0.000000 -0.000000 8.207792 -6.751710 -1.599556 -0.074518 -0.000003 0.000081 -0.000002 -44.370014 0.346960 0.148822 0.000002 0.000000 -0.000001 -44.423664 -3.044403 -0.074314 0.000000 -0.000002 -0.000004 -8.728671 10.710558 0.000007 -0.000000 -0.000000 0.000000 -0.000680 9.278137 -0.000000 0.000000 -0.000001 
0.000006 104.270477 1.554256 0.000010 0.000003 -0.000113 -0.000005 10.181587 0.131522 0.000001 -0.000003 0.000084 -0.000000 9.893967 -1.470711 0.000001 0.000000 -0.000000 -0.000000 9.220802 -1.370642 0.000000 -0.000000 -0.000000 0.000001 16.740433 -2.049030 0.000000 -0.000000 -0.000000 0.000000 9.617859 1.685014 0.000000 0.000000 0.000000 0.000002 22.037384 7.501101 0.000000 -0.000000 0.000000 -4.569968 11.014880 -2.160881 0.000008 0.000001 -0.000038 -10.592868 -0.524777 -2.231874 73.686109 36.237835 -27.551265 -27.841518 0.000010 0.000542 -50.819968 104.352409 62.925194 -28.328812 0.000019 0.000025 -0.000318 -0.000045 0.000006 -2.464419 -1.573980 2.682348 -19.891888 -142.893636 38.022020 -3.215121 -1.872434 1.924610 138.089609 32.294586 67.092026 -2.654953 -1.527858 1.513067 151.592702 27.710486 -24.078439 -2.018823 -1.152004 1.108063 -0.000003 -0.000004 0.000004 -9.108375 -0.517583 2.260217 117.454706 15.755650 -25.744166 -3.700072 0.000309 0.001583 113.838476 11.545393 -17.607618 -2.850087 0.000365 -0.000194 111.902397 8.865304 -13.086919 -2.772153 -0.000014 -0.000013 -0.000003 0.000005 -0.000001 -9.532587 0.000252 0.000326 114.921607 15.666022 -24.556613 -3.700070 0.000314 0.004074 114.996097 10.188266 -15.784168 -2.950067 0.000335 -0.001703 115.622016 9.237975 -14.616782 -2.946624 0.000003 -0.000149 0.000005 0.000000 -0.000000 -9.103689 -0.042780 -1.864758 113.292382 18.075983 -27.103239 -3.379342 0.000297 -0.000698 118.030791 10.402930 -17.269742 -2.889779 0.000334 0.000765 122.531545 8.071166 -14.750518 -2.638810 -0.000002 0.000938 0.000002 -0.000000 0.000001 -8.076775 -0.486414 -3.805975 93.882801 25.227599 -26.765046 -3.600072 0.000263 -0.003442 101.519451 14.917347 -17.746916 -2.100024 0.000299 -0.005394 108.824762 8.540539 -11.594545 -2.115763 -0.000028 -0.003678 -0.000000 0.000002 -0.000005 4.570446 11.014691 -2.160851 -0.000018 0.000010 -0.000021 10.592417 -0.524481 -2.232367 71.374582 -19.388694 13.990274 27.841820 0.000059 -0.000178 102.075811 -75.222567 87.223401 28.328846 -0.000029 0.000018 0.000025 -0.000088 -0.000000 2.466236 -1.576081 2.681839 5.262490 164.207187 -93.504661 3.217834 -1.871754 1.916395 169.654714 -27.382712 17.964268 2.656126 -1.528690 1.514492 140.555936 -27.053500 58.640473 2.020872 -1.154083 1.115154 0.000002 -0.000001 0.000004 9.109377 -0.517838 2.259747 94.322194 -18.508899 19.918922 3.700045 0.000201 -0.000480 91.965089 -10.801305 11.192968 2.850035 0.000211 0.000193 90.643072 -7.772310 7.858522 2.774869 -0.000031 -0.000023 0.000006 0.000001 0.000001 9.533470 0.000236 -0.000080 96.109757 -17.677896 19.624303 3.700026 0.000228 -0.000378 95.001975 -8.545703 9.320234 2.950047 0.000213 -0.000217 95.596687 -9.601313 10.585940 2.952866 -0.000029 0.000065 -0.000000 0.000001 -0.000000 9.104586 -0.042828 -1.865216 92.809806 -17.428525 18.292490 3.150035 0.000224 -0.000105 97.744098 -11.285831 12.913551 2.950034 0.000215 -0.000079 100.433799 -11.112381 13.329165 2.644318 0.000046 0.000060 0.000001 0.000000 -0.000000 8.077847 -0.486735 -3.806394 76.832538 -21.231657 17.402511 3.600028 0.000164 0.014583 79.154366 -18.712138 15.959640 2.100044 0.000166 0.007554 83.424607 -14.656614 13.522610 2.125503 -0.000018 0.007513 0.000002 -0.000000 0.000000 -8.207786 -6.751667 -1.599560 -0.077001 -0.000003 0.000080 -0.000002 -44.370110 0.345938 0.153719 -0.000000 -0.000000 0.000000 -44.423679 -3.043532 -0.076700 0.000000 -0.000002 -0.000006 -8.728667 10.710559 -0.000009 -0.000000 -0.000000 -0.000001 -0.000679 9.278123 0.000000 -0.000000 -0.000000 8.207792 -6.751710 -1.599556 -0.074518 -0.000003 0.000081 -0.000002 -44.370014 0.346960 0.148822 0.000002 0.000000 -0.000001 -44.423664 -3.044403 -0.074314 0.000000 -0.000002 -0.000004 -8.728671 10.710558 0.000007 -0.000000 -0.000000 0.000000 -0.000680 9.278137 -0.000000 0.000000 -0.000001 
0.000006 104.270477 1.554256 0.000010 0.000003 -0.000113 -0.000005 10.181587 0.131522 0.000001 -0.000003 0.000084 -0.000000 9.893967 -1.470711 0.000001 0.000000 -0.000000 -0.000000 9.220802 -1.370642 0.000000 -0.000000 -0.000000 0.000001 16.740433 -2.049030 0.000000 -0.000000 -0.000000 0.000000 9.617859 1.685014 0.000000 0.000000 0.000000 0.000002 22.037384 7.501101 0.000000 -0.000000 0.000000 -4.569968 11.014880 -2.160881 0.000008 0.000001 -0.000038 -10.592864 -0.524796 -2.231848 72.888009 39.677211 -29.836513 -27.841532 0.000003 0.000562 -50.222360 104.198668 62.097648 -28.328827 0.000023 0.000033 -0.000318 -0.000047 0.000010 -2.464414 -1.573997 2.682364 -19.503933 -142.513372 38.398036 -3.215132 -1.872428 1.924612 137.323781 31.844148 68.955916 -2.654958 -1.527850 1.513063 151.310560 27.742354 -24.035413 -2.018827 -1.151995 1.108059 -0.000004 -0.000003 0.000002 -9.108356 -0.517574 2.260220 117.367662 15.636975 -25.512468 -3.700063 0.000313 0.001579 113.556990 11.482053 -17.419458 -2.850070 0.000347 -0.000191 111.491097 8.769072 -12.846714 -2.772147 0.000003 -0.000019 -0.000001 0.000004 -0.000001 -9.532585 0.000254 0.000341 114.807079 15.634747 -24.456476 -3.700061 0.000322 0.004065 114.936156 10.242930 -15.850834 -2.950060 0.000324 -0.001719 115.599026 9.174746 -14.510937 -2.946614 0.000013 -0.000153 0.000008 0.000003 -0.000001 -9.103680 -0.042789 -1.864760 113.453328 18.266323 -27.463945 -3.379355 0.000294 -0.000690 118.049014 10.662804 -17.702484 -2.889774 0.000317 0.000769 122.526231 8.195872 -14.973834 -2.638804 -0.000002 0.000935 0.000002 -0.000001 0.000001 -8.076765 -0.486423 -3.805980 93.354117 25.418296 -26.728313 -3.600071 0.000259 -0.003436 101.831133 15.130693 -18.103534 -2.100028 0.000289 -0.005379 109.516483 8.667147 -11.920157 -2.115778 -0.000011 -0.003680 0.000000 0.000000 -0.000002 4.570446 11.014691 -2.160851 -0.000018 0.000010 -0.000021 10.592443 -0.524469 -2.232399 71.455677 -27.558177 20.008349 27.841827 0.000042 -0.000181 103.166442 -76.037142 89.180899 28.328840 -0.000031 0.000026 0.000020 -0.000090 -0.000000 2.466264 -1.575995 2.681820 17.049004 174.256103 -116.947401 3.217858 -1.871849 1.916435 171.026270 -18.418020 45.309542 2.656108 -1.528684 1.514485 142.259685 -26.261609 60.684434 2.020896 -1.154085 1.115146 0.000004 0.000004 -0.000003 9.109415 -0.517842 2.259752 96.893070 -21.269855 23.907305 3.700052 0.000189 -0.000464 95.276139 -11.892349 13.050004 2.850048 0.000230 0.000205 94.098280 -7.628139 8.191073 2.774909 -0.000015 -0.000027 -0.000000 0.000000 0.000000 9.533497 0.000223 -0.000085 96.629562 -19.692938 22.047898 3.700050 0.000224 -0.000371 98.699744 -8.909871 10.366500 2.950050 0.000222 -0.000203 98.956457 -8.181589 9.569308 2.952869 -0.000032 0.000062 -0.000004 -0.000001 0.000002 9.104624 -0.042841 -1.865215 94.536416 -18.557583 20.060505 3.150041 0.000238 -0.000092 99.115293 -10.848313 12.715492 2.950013 0.000227 -0.000074 99.701296 -8.818261 10.447388 2.644320 0.000031 0.000056 -0.000003 0.000001 -0.000001 8.077859 -0.486709 -3.806394 83.804420 -20.230501 18.736730 3.600022 0.000179 0.014581 86.227259 -17.025331 16.449951 2.100042 0.000192 0.007542 87.548859 -12.709508 12.646925 2.125496 -0.000014 0.007513 0.000000 -0.000000 -0.000000 -8.207786 -6.751667 -1.599560 -0.077001 -0.000003 0.000080 -0.000002 -44.370110 0.345938 0.153719 -0.000000 -0.000000 0.000000 -44.423679 -3.043532 -0.076700 0.000000 -0.000002 -0.000006 -8.728667 10.710559 -0.000009 -0.000000 -0.000000 -0.000001 -0.000679 9.278123 0.000000 -0.000000 -0.000000 8.207792 -6.751710 -1.599556 -0.074518 -0.000003 0.000081 -0.000002 -44.370014 0.346960 0.148822 0.000002 0.000000 -0.000001 -44.423664 -3.044403 -0.074314 0.000000 -0.000002 -0.000004 -8.728671 10.710558 0.000007 -0.000000 -0.000000 0.000000 -0.000680 9.278137 -0.000000 0.000000 -0.000001 
